<?xml version="1.0" encoding="UTF-8"?><svg id="Layer_8" xmlns="http://www.w3.org/2000/svg" width="996.2" height="996.2" viewBox="0 0 996.2 996.2"><defs><style>.cls-1{fill:#00e;}.cls-2{fill:#fff;}.cls-3{fill:#e5e1db;opacity:.75;}</style></defs><circle class="cls-3" cx="496.2" cy="570.15" r="409.59"/><path class="cls-1" d="M652.06,19.16L112.82,583.23l-.06,.75c-.38,4.47,3.39,8.37,7.8,8.07h0L679.72,46.77l.37-.69c2.72-5.14,2.82-11.52-.12-16.81-2.34-4.22-5.74-7.77-9.81-10.27-5.69-3.5-12.73-3.29-18.11,.17h0Z"/><g><path class="cls-2" d="M438.21,706.55v-119.63c0-5.52,1.18-9.7,3.54-12.53,2.36-2.83,5.54-4.24,9.55-4.24s7.24,1.4,9.7,4.19c2.46,2.8,3.69,6.99,3.69,12.58v119.63c0,5.59-1.25,9.79-3.73,12.58-2.49,2.79-5.71,4.19-9.65,4.19s-7.03-1.45-9.46-4.34-3.64-7.04-3.64-12.43Z"/><path class="cls-2" d="M561.6,707.76v-3.54c-3.17,4.18-6.5,7.68-9.99,10.51-3.49,2.83-7.31,4.94-11.44,6.32-4.14,1.38-8.86,2.07-14.16,2.07-6.4,0-12.14-1.38-17.22-4.14-5.08-2.76-9-6.57-11.78-11.42-3.3-5.86-4.95-14.28-4.95-25.26v-54.66c0-5.52,1.2-9.65,3.59-12.38,2.39-2.73,5.56-4.09,9.51-4.09s7.24,1.38,9.7,4.14c2.46,2.76,3.69,6.87,3.69,12.33v44.16c0,6.4,.52,11.77,1.55,16.12,1.03,4.34,2.89,7.75,5.58,10.21,2.68,2.46,6.32,3.69,10.91,3.69s8.66-1.38,12.61-4.14c3.94-2.76,6.82-6.37,8.63-10.81,1.49-3.91,2.23-12.46,2.23-25.66v-33.55c0-5.46,1.23-9.56,3.69-12.33,2.46-2.76,5.66-4.14,9.6-4.14s7.11,1.36,9.5,4.09c2.39,2.73,3.59,6.86,3.59,12.38v79.92c0,5.25-1.15,9.19-3.44,11.82-2.3,2.63-5.25,3.94-8.88,3.94s-6.61-1.36-8.97-4.09c-2.36-2.73-3.54-6.55-3.54-11.47Z"/><path class="cls-2" d="M639.89,683.51v23.04c0,5.59-1.26,9.79-3.78,12.58-2.52,2.79-5.72,4.19-9.6,4.19s-6.95-1.42-9.41-4.24c-2.46-2.83-3.69-7-3.69-12.53v-76.79c0-12.39,4.3-18.59,12.9-18.59,4.4,0,7.57,1.45,9.5,4.34,1.94,2.9,3.01,7.17,3.2,12.83,3.17-5.66,6.42-9.94,9.75-12.83,3.33-2.9,7.77-4.34,13.34-4.34s10.96,1.45,16.2,4.34c5.24,2.9,7.86,6.74,7.86,11.52,0,3.37-1.12,6.15-3.35,8.34-2.23,2.19-4.64,3.28-7.23,3.28-.97,0-3.31-.62-7.03-1.87-3.72-1.25-7-1.87-9.84-1.87-3.88,0-7.05,1.06-9.5,3.18-2.46,2.12-4.36,5.27-5.72,9.45-1.36,4.18-2.3,9.14-2.81,14.9-.52,5.76-.78,12.78-.78,21.07Z"/><path class="cls-2" d="M723.22,626.62v3.33c4.98-6.4,10.15-11.1,15.52-14.09,5.37-3,11.45-4.5,18.23-4.5,8.15,0,15.65,2.19,22.5,6.57,6.85,4.38,12.27,10.78,16.25,19.2,3.98,8.42,5.96,18.39,5.96,29.91,0,8.49-1.15,16.29-3.44,23.39-2.3,7.11-5.45,13.07-9.46,17.88-4.01,4.82-8.75,8.52-14.21,11.11-5.46,2.59-11.33,3.89-17.6,3.89-7.57,0-13.92-1.58-19.06-4.75-5.14-3.17-10.04-7.81-14.69-13.94v41.43c0,12.12-4.24,18.19-12.71,18.19-4.98,0-8.28-1.57-9.89-4.7-1.62-3.13-2.42-7.7-2.42-13.69v-119.03c0-5.25,1.1-9.18,3.3-11.77,2.2-2.59,5.2-3.89,9.02-3.89s6.8,1.33,9.17,3.99c2.36,2.66,3.54,6.48,3.54,11.47Zm51.89,40.11c0-7.27-1.07-13.52-3.2-18.74-2.13-5.22-5.09-9.23-8.88-12.02-3.78-2.79-7.97-4.19-12.56-4.19-7.31,0-13.47,3-18.48,8.99-5.01,6-7.52,14.82-7.52,26.47,0,10.98,2.49,19.52,7.47,25.61,4.98,6.1,11.15,9.14,18.53,9.14,4.4,0,8.47-1.33,12.22-3.99,3.75-2.66,6.76-6.65,9.02-11.97,2.26-5.32,3.39-11.75,3.39-19.3Z"/></g><path class="cls-1" d="M750.24,125.63L126.68,570.74l-.19,.72c-1.15,4.28,1.82,8.78,6.15,9.34h0L772.26,157.76l.48-.6c3.55-4.48,4.77-10.66,2.85-16.36-1.53-4.55-4.21-8.65-7.72-11.86-4.91-4.49-11.79-5.64-17.63-3.3h0Z"/><path class="cls-2" d="M249.59,369.17c-32.4,22.62-36.85,71.92-20.98,103.87,15.87,31.95,46.55,57.44,74.93,83.27,28.38,25.83,56.05,54.38,63.54,88.22,7.49,33.85-12.07,73.87-53.01,84.44-40.94,10.57-91.67-25.35-73.43-56.48,7.36-12.56,23.78-25.53,15.41-37.68-5.09-7.39-18.06-9.5-27.84-6.33-9.78,3.18-16.68,10.34-21.44,17.87-20.39,32.22-5.58,75.26,31.11,96.35,36.68,21.09,90.47,19.42,126.69-2.17,36.22-21.59,53.59-60.73,45.28-96.22-16.94-72.29-123.62-116.26-134.56-189.29-3.76-25.11,5.69-51.89,28.01-69.82,22.32-17.93,57.84-25.56,87.36-16.42,29.52,9.14,49.75,35.9,43.06,60.62-6.69,24.72-41.96,42.7-72.08,34.93-8.52-2.2-17.08-6.19-25.82-4.66-13.26,2.32-18.05,17.11-11.08,26.42,6.97,9.3,21.25,13.49,34.76,14.47,51.38,3.73,99.77-34.05,100.83-75.26,1.06-41.21-28.47-75.3-79.05-83.44-50.58-8.13-107.94,.09-138.12,33.52l6.44-6.21Z"/><polygon class="cls-1" points="294.22 393.71 219.73 471.4 229.96 485.37 313.92 403.49 294.22 393.71"/><path class="cls-2" d="M464.74,532.04v66.09c0,7.74-5.93,14.02-13.25,14.02h0c-7.32,0-13.25-6.28-13.25-14.02v-66.09c0-7.74,5.93-14.02,13.25-14.02h0c7.32,0,13.25,6.28,13.25,14.02Z"/></svg>