<?xml version="1.0" encoding="UTF-8"?><svg id="Layer_1" xmlns="http://www.w3.org/2000/svg" width="154" height="174" viewBox="0 0 154 174"><defs><style>.cls-1{fill:#00e;}.cls-2{fill:#fff;}.cls-3{fill:rgba(228,221,209,.58);opacity:.58;}</style></defs><path class="cls-3" d="M67.01,173.54c37.01,0,67.01-30,67.01-67.01S104.02,39.52,67.01,39.52,0,69.52,0,106.53s30,67.01,67.01,67.01Z"/><path class="cls-1" d="M115.2,9.86L20.81,104.59v.13c-.08,.75,.58,1.4,1.35,1.35L120.03,14.48l.06-.12c.48-.86,.5-1.93-.01-2.82-.41-.71-1-1.3-1.71-1.72-.99-.58-2.22-.55-3.16,.03h0Z"/><path class="cls-2" d="M59.92,124.81v-14.52c0-.67,.15-1.18,.45-1.52,.3-.34,.7-.52,1.21-.52s.91,.17,1.23,.51c.31,.34,.47,.85,.47,1.53v14.52c0,.68-.16,1.19-.47,1.53-.31,.34-.72,.51-1.22,.51s-.89-.18-1.2-.53c-.31-.35-.46-.85-.46-1.51h0Z"/><path class="cls-2" d="M75.51,124.96v-.43c-.4,.51-.82,.93-1.26,1.28-.44,.34-.92,.6-1.45,.77-.52,.17-1.12,.25-1.79,.25-.81,0-1.53-.17-2.18-.5-.64-.33-1.14-.8-1.49-1.39-.42-.71-.63-1.73-.63-3.07v-6.63c0-.67,.15-1.17,.45-1.5,.3-.33,.7-.5,1.2-.5s.91,.17,1.23,.5c.31,.34,.47,.83,.47,1.5v5.36c0,.78,.06,1.43,.2,1.96,.13,.53,.37,.94,.71,1.24,.34,.3,.8,.45,1.38,.45s1.09-.17,1.59-.5c.5-.33,.86-.77,1.09-1.31,.19-.47,.28-1.51,.28-3.11v-4.07c0-.66,.15-1.16,.47-1.5,.31-.33,.72-.5,1.21-.5s.9,.17,1.2,.5c.3,.33,.45,.83,.45,1.5v9.7c0,.64-.14,1.12-.44,1.43-.29,.32-.66,.48-1.12,.48s-.84-.17-1.13-.5c-.3-.33-.45-.79-.45-1.39h0Z"/><path class="cls-2" d="M85.41,122.01v2.8c0,.68-.16,1.19-.48,1.53-.32,.34-.72,.51-1.21,.51s-.88-.17-1.19-.51c-.31-.34-.47-.85-.47-1.52v-9.32c0-1.5,.54-2.25,1.63-2.25,.56,0,.96,.18,1.2,.53,.25,.35,.38,.87,.4,1.56,.4-.69,.81-1.21,1.23-1.56,.42-.35,.98-.53,1.69-.53s1.39,.18,2.05,.53c.66,.35,.99,.82,.99,1.4,0,.41-.14,.75-.42,1.01-.28,.27-.59,.4-.91,.4-.12,0-.42-.08-.89-.23-.47-.15-.89-.23-1.24-.23-.49,0-.89,.13-1.2,.39-.31,.26-.55,.64-.72,1.15-.17,.51-.29,1.11-.36,1.81-.06,.7-.1,1.55-.1,2.56h0Z"/><path class="cls-2" d="M95.95,115.11v.4c.63-.78,1.28-1.35,1.96-1.71,.68-.36,1.45-.55,2.31-.55,1.03,0,1.98,.27,2.85,.8,.87,.53,1.55,1.31,2.05,2.33s.75,2.23,.75,3.63c0,1.03-.14,1.97-.44,2.84-.29,.86-.69,1.59-1.2,2.17-.51,.58-1.11,1.03-1.8,1.35-.69,.32-1.43,.47-2.23,.47-.96,0-1.76-.19-2.41-.58-.65-.38-1.27-.95-1.86-1.69v5.03c0,1.47-.54,2.21-1.61,2.21-.63,0-1.05-.19-1.25-.57-.21-.38-.31-.93-.31-1.66v-14.44c0-.64,.14-1.11,.42-1.43,.28-.32,.66-.47,1.14-.47s.86,.16,1.16,.49c.3,.32,.45,.79,.45,1.39h0Zm6.56,4.87c0-.88-.13-1.64-.4-2.28-.27-.63-.64-1.12-1.12-1.46-.48-.34-1.01-.51-1.59-.51-.92,0-1.7,.36-2.34,1.09-.63,.73-.95,1.8-.95,3.21,0,1.33,.31,2.37,.94,3.11,.63,.74,1.41,1.11,2.34,1.11,.55,0,1.07-.16,1.55-.49,.48-.32,.85-.81,1.14-1.45,.28-.64,.43-1.43,.43-2.34h0Z"/><path class="cls-1" d="M132.02,33.77L22.19,103.3l-.04,.12c-.22,.69,.26,1.44,1,1.55L135.62,39.1l.09-.1c.64-.71,.88-1.71,.59-2.65-.24-.75-.67-1.43-1.26-1.97-.82-.75-1.99-.97-3.01-.62h0Z"/><path class="cls-2" d="M33.89,82.61c-4.06,2.75-4.61,8.76-2.63,12.65,1.99,3.89,5.83,6.99,9.38,10.14,3.55,3.14,7.02,6.62,7.95,10.74,.94,4.12-1.51,8.99-6.63,10.28-5.12,1.29-11.47-3.09-9.19-6.88,.92-1.53,2.98-3.11,1.93-4.59-.64-.9-2.26-1.16-3.48-.77-1.22,.39-2.09,1.26-2.68,2.18-2.55,3.92-.7,9.16,3.89,11.73,4.59,2.57,11.32,2.36,15.86-.26,4.53-2.63,6.71-7.39,5.67-11.72-2.12-8.8-15.47-14.16-16.84-23.05-.47-3.06,.71-6.32,3.51-8.5,2.79-2.18,7.24-3.11,10.93-2,3.69,1.11,6.23,4.37,5.39,7.38-.84,3.01-5.25,5.2-9.02,4.25-1.07-.27-2.14-.75-3.23-.57-1.66,.28-2.26,2.08-1.39,3.22,.87,1.13,2.66,1.64,4.35,1.76,6.43,.45,12.49-4.15,12.62-9.16,.13-5.02-3.56-9.17-9.89-10.16-6.33-.99-13.51,.01-17.29,4.08l.81-.75h0Z"/><polygon class="cls-1" points="29.77 95.6 31.63 97.18 42.05 87.46 39.7 85.63 29.77 95.6"/></svg>