<svg xmlns="http://www.w3.org/2000/svg" xmlns:xlink="http://www.w3.org/1999/xlink" width="2525" height="5092" viewBox="0 0 2525 5092">
  <defs>
    <clipPath id="clip-Web_1920_7">
      <rect width="2525" height="5092"/>
    </clipPath>
  </defs>
  <g id="Web_1920_7" data-name="Web 1920 – 7" clip-path="url(#clip-Web_1920_7)">
    <rect width="2525" height="5092" fill="#e5e1db"/>
    <g id="Group_18" data-name="Group 18" transform="translate(2419.872 2127.928) rotate(98)">
      <g id="Group_16" data-name="Group 16" transform="matrix(0.978, -0.208, 0.208, 0.978, -248.734, 1348.059)">
        <g id="Group_13" data-name="Group 13" transform="translate(1623.877 0)">
          <g id="Group_21" data-name="Group 21">
            <path id="Path_83" data-name="Path 83" d="M0,634.346c80.336-76.417,218.126,68.443,298.439-7.95S240.982,405.12,321.314,328.707s218.126,68.443,298.462-7.97-57.457-221.276,22.9-297.709S860.8,91.471,941.134,15.058" transform="translate(0)" fill="rgba(0,0,0,0)" stroke="#00e" stroke-linecap="round" stroke-linejoin="round" stroke-width="3"/>
            <path id="Path_130" data-name="Path 130" d="M0,634.346c80.336-76.417,218.126,68.443,298.439-7.95S240.982,405.12,321.314,328.707s218.126,68.443,298.462-7.97-57.457-221.276,22.9-297.709S860.8,91.471,941.134,15.058" transform="translate(937.984 -616.539)" fill="rgba(0,0,0,0)" stroke="#00e" stroke-linecap="round" stroke-linejoin="round" stroke-width="3"/>
            <path id="Path_84" data-name="Path 84" d="M0,634.344c80.336-76.413,218.126,68.447,298.439-7.946s-57.457-221.276,22.876-297.69,218.129,68.443,298.462-7.97-57.457-221.276,22.9-297.713S860.8,91.472,941.134,15.056" transform="translate(25.09 26.376)" fill="rgba(0,0,0,0)" stroke="#00e" stroke-linecap="round" stroke-linejoin="round" stroke-width="3"/>
            <path id="Path_131" data-name="Path 131" d="M0,634.344c80.336-76.413,218.126,68.447,298.439-7.946s-57.457-221.276,22.876-297.69,218.129,68.443,298.462-7.97-57.457-221.276,22.9-297.713S860.8,91.472,941.134,15.056" transform="translate(963.074 -590.162)" fill="rgba(0,0,0,0)" stroke="#00e" stroke-linecap="round" stroke-linejoin="round" stroke-width="3"/>
            <path id="Path_85" data-name="Path 85" d="M0,634.345c80.336-76.413,218.129,68.447,298.439-7.946s-57.457-221.276,22.876-297.69,218.129,68.443,298.462-7.97-57.457-221.276,22.9-297.713S860.8,91.474,941.137,15.057" transform="translate(50.18 52.752)" fill="rgba(0,0,0,0)" stroke="#00e" stroke-linecap="round" stroke-linejoin="round" stroke-width="3"/>
            <path id="Path_132" data-name="Path 132" d="M0,634.345c80.336-76.413,218.129,68.447,298.439-7.946s-57.457-221.276,22.876-297.69,218.129,68.443,298.462-7.97-57.457-221.276,22.9-297.713S860.8,91.474,941.137,15.057" transform="translate(988.163 -563.787)" fill="rgba(0,0,0,0)" stroke="#00e" stroke-linecap="round" stroke-linejoin="round" stroke-width="3"/>
            <path id="Path_86" data-name="Path 86" d="M0,634.314c80.336-76.413,218.129,68.447,298.439-7.946s-57.457-221.276,22.876-297.689,218.129,68.443,298.462-7.97S562.319,99.432,642.652,23.019s218.126,68.443,298.462-7.973" transform="translate(75.269 79.16)" fill="rgba(0,0,0,0)" stroke="#00e" stroke-linecap="round" stroke-linejoin="round" stroke-width="3"/>
            <path id="Path_133" data-name="Path 133" d="M0,634.314c80.336-76.413,218.129,68.447,298.439-7.946s-57.457-221.276,22.876-297.689,218.129,68.443,298.462-7.97S562.319,99.432,642.652,23.019s218.126,68.443,298.462-7.973" transform="translate(1013.253 -537.378)" fill="rgba(0,0,0,0)" stroke="#00e" stroke-linecap="round" stroke-linejoin="round" stroke-width="3"/>
            <path id="Path_87" data-name="Path 87" d="M0,634.316c80.333-76.413,218.126,68.447,298.435-7.95s-57.457-221.273,22.879-297.689,218.126,68.447,298.459-7.97S562.316,99.434,642.649,23.017s218.129,68.447,298.462-7.97" transform="translate(100.362 105.536)" fill="rgba(0,0,0,0)" stroke="#00e" stroke-linecap="round" stroke-linejoin="round" stroke-width="3"/>
            <path id="Path_134" data-name="Path 134" d="M0,634.316c80.333-76.413,218.126,68.447,298.435-7.95s-57.457-221.273,22.879-297.689,218.126,68.447,298.459-7.97S562.316,99.434,642.649,23.017s218.129,68.447,298.462-7.97" transform="translate(1038.346 -511.002)" fill="rgba(0,0,0,0)" stroke="#00e" stroke-linecap="round" stroke-linejoin="round" stroke-width="3"/>
          </g>
        </g>
        <g id="Group_15" data-name="Group 15" transform="translate(0 612.17)">
          <path id="Path_83-2" data-name="Path 83" d="M1632.1,15.058c-80.333,76.413-218.1-68.468-298.458,7.97s57.433,221.293-22.9,297.709-218.126-68.447-298.462,7.97S1069.717,550,989.4,626.4s-269.187-73.506-298.439,7.95-64.38,80.9-75.9,79.251S507.978,565.629,471.642,566.861,359.654,554.91,334.215,621.254s75.6,179.877,34.251,173.537-83.122-66.5-147.031-49.555S105.606,800.368,0,909.23" transform="translate(0 0)" fill="rgba(0,0,0,0)" stroke="#00e" stroke-linecap="round" stroke-linejoin="round" stroke-width="3"/>
          <path id="Path_84-2" data-name="Path 84" d="M1638.307,15.056c-80.333,76.416-218.1-68.463-298.459,7.97s57.434,221.3-22.9,297.713-218.126-68.447-298.462,7.97S1075.924,550,995.611,626.4c-77.02,73.261-206.9-56.96-288.384-.291a85.537,85.537,0,0,0-10.054,8.237c-80.336,76.413-70.653,66.938-88.664,70.6S473.2,584.171,441.774,573.613s-82.072-.046-98.507,57.671,66.2,145.41,59.35,176.027-156.286-67.89-227.055-54.546S20.526,1008.742,0,972.983" transform="translate(18.883 26.376)" fill="rgba(0,0,0,0)" stroke="#00e" stroke-linecap="round" stroke-linejoin="round" stroke-width="3"/>
          <path id="Path_85-2" data-name="Path 85" d="M1646.158,15.057c-80.336,76.416-218.106-68.467-298.462,7.97s57.434,221.3-22.9,297.713-218.126-68.447-298.462,7.97,57.437,221.3-22.876,297.69-242.259-60.565-324,17.628-88.344,58.334-102.818,54.3S464.305,604.3,436.563,583.009s-95.868-19.528-59.252,101.968,80.944,125.576,60.632,157.585S269.064,716.406,164.931,764,27.4,1083.748,0,1007.86" transform="translate(36.124 52.752)" fill="rgba(0,0,0,0)" stroke="#00e" stroke-linecap="round" stroke-linejoin="round" stroke-width="3"/>
          <path id="Path_86-2" data-name="Path 86" d="M1686.186,15.046C1605.85,91.463,1468.06-53.4,1387.724,23.019s57.46,221.273-22.876,297.689-218.126-68.447-298.462,7.97,57.437,221.293-22.876,297.689-173.281-26.53-276.357-6.534-74.764,77.917-121.909,98.816S421.731,531.322,418.274,613.028s114.784,213.493,65.291,238.845-240.883-113.49-295.835-55.127S128.142,1080.95,0,1058.982" transform="translate(21.163 79.161)" fill="rgba(0,0,0,0)" stroke="#00e" stroke-linecap="round" stroke-linejoin="round" stroke-width="3"/>
          <path id="Path_87-2" data-name="Path 87" d="M1556.7,15.048c-80.333,76.416-218.126-68.443-298.462,7.97s57.46,221.276-22.876,297.689-218.126-68.443-298.459,7.97,57.433,221.3-22.879,297.689-302.729-76.39-338.777,59.02-353-142.251-230.172,46.091,15.237,208.847-107.8,115.07-172.01-46.7-192.352,6.518S84.723,1028.1,0,1064.41" transform="translate(175.741 105.536)" fill="rgba(0,0,0,0)" stroke="#00e" stroke-linecap="round" stroke-linejoin="round" stroke-width="3"/>
        </g>
      </g>
    </g>
    <g id="Path_129" transform="translate(1320.615 2636.437)">
      <path id="Path_135" data-name="Path 135" d="M.9,681.226c4.19-31.568,14.041-63.808,32.784-90.291,29.873-44.042,87.444-68.382,137.947-45.161,44.2,19.734,66.047,67.038,71.1,111.912,2.015,17.591,2.623,34.8.864,52.2-5.565,34.223-14.041,68.861-18.1,102.892-4.8,40.46-12.218,103.98,12.474,137.531,6.621,8.668,23.284,18.167,33.583,10.331,29.425-24.724,42.059-111.72,49.191-150.836,12.474-74.906,19.734-150.324,35.63-224.847,4.382-19.126,9.179-38.573,17.079-57,4.638-10.2,10.171-21.3,19.67-29.265,13.145-11.962,34.958-10.843,46.537,2.623,22.964,25.811,25.2,84.789,29.073,118.532,2.239,25.3,4.062,50.407,6.461,75.258,3.806,36.4,7.26,73.275,19.766,107.082,6.077,14.233,12.41,27.73,26.707,29.105a6.044,6.044,0,0,0,1.119,0c.1.032.128-.064.224,0,7.708-5.533,11.642-18.966,14.777-28.722,6.557-22.581,10.235-47.3,13.433-71.868,12.25-99.854,14.681-201.051,28.658-301.384,6.365-38.8,11.258-78.9,31.664-114.534,12.41-21.877,42.187-37.517,61.377-12.858,23.22,31.7,22.133,108.2,23.444,147.67,1.151,176.807-17.879,352.815-17.207,529.174,1.023,35.982.512,74.235,11.194,108.01,1.087,3.582,3.39,7.452,5.277,9.083.1.064-.1,0-.256-.064a14.166,14.166,0,0,0,6.557-1.375c28.338-15.832,43.594-95.088,51.3-127.3,15.7-73.915,26.707-148.629,40.684-223.088,12.058-56.931,32.016-184.8,91.634-207.608,22.9-8.828,45.257,1.183,56.675,22.133,15.992,28.881,19.478,62.209,23.092,94.257,9.02,100.685,3.134,201.851,11.642,302.344,4.318,41.131,11.226,129.055,55.62,144.247,16.7,4.062,35.534,2.751,51.686-1.983,23-6.973,39.436-25.139,51.43-45.641,25.011-43.21,40.971-95.408,81.687-128.8,20.438-16.855,45.257-29.073,71.612-32.784,80.024-8.764,136.124,81.687,173.609,139.962,39.788,64.16,74.107,132.221,116.262,194.462,30.513,43.818,79.608,109.257,137.915,105.2,49.7-9.915,61.377-115.43,66.974-157.713,8.284-74.906,9.467-150.388,9.691-225.806.128-201.723-11.418-403.413-6.237-605.232,3.646-88.34,6.141-178.95,33.775-263.867,9.02-24.756,20.63-49.991,43.178-65.983,24.5-16.824,58.115-15.864,76.825,10.651,49.063,66.814,40.236,253.824,38.86,338.838-9.467,302.248-51.238,603.185-45.321,905.753,2.719,61.889,5.725,125.281,25.875,184.163,8.06,21.141,19.446,44.458,40.875,53.093,9.531,3.87,20.31,3.614,29.233-2.335,18.934-12.73,30.928-36.206,40.715-57.059,10.235-22.485,18.583-46.057,26.291-69.853,44.713-144.343,74.3-292.941,117.061-438.18,55.428-184.163,127.3-407.507,283.377-530.453,61.473-47.912,140.569-72.54,218.418-67.006a417.892,417.892,0,0,1,76.378,12.026,9.607,9.607,0,0,1-4.638,18.647c-339.733-89.555-481.9,315.3-557.032,571.585-43.051,144.951-73.02,293.74-118.181,438.372-12.154,36.27-24.788,73.179-45.8,105.835-21.717,34.127-54.693,51.27-89.843,21.845-24.979-22.932-34.543-56.8-42.155-88.436-10.906-49.991-14.169-100.845-15.96-151.7-5.693-302.952,36.334-604.336,46.121-906.712,1.535-82.263,9.915-265.882-35.6-329.658-14.3-20.182-38.349-20.5-57.443-7.644-29.073,21.909-39.084,60.13-48.136,94.544-16.664,73.275-20.246,148.885-22.9,223.951-4.126,151.124,1.759,302.216,4.542,453.436,1.823,101.005,3.486,202.01-1.823,303.016-4.478,63.008-10.619,199.58-64.576,237.544-17.943,12.826-41.451,10.043-60.8,2.527-49-19.446-82.2-63.744-111.368-105.355-42.73-63.1-76.7-130.558-116.645-194.942-26.259-41.387-54.277-84.661-93.937-113.767-19.126-13.817-42.251-22.581-65.855-19.478-23.508,3.39-45.929,14.521-64.128,29.585-38.892,32.24-53.349,82.135-78.552,125.217-24.212,42.443-60.258,61.473-109.161,56.2-78.808-8.22-77.017-174.824-80.471-234.89-3.486-87.892,1.055-176.231-12.474-263.2-4.382-22.069-9.563-48.9-26.579-63.744-18.87-14.265-42.219.352-54.373,17.623-21.365,29.937-31.408,66.495-40.843,102.061-6.109,24.212-11.162,48.807-15.608,73.531-13.689,74.3-21.461,149.845-34.575,224.431-8.7,42.123-24.18,154.482-82.359,149.429-26.579-5.053-30.257-43.306-33.743-64.639-6.045-51.27-5.117-101.869-4.414-153.011,2.911-151.444,15.352-302.024,14.233-453.052-.384-24.947-1.279-49.895-3.774-74.235a266.338,266.338,0,0,0-5.725-35.342c-2.367-8.124-4.19-16.7-9.659-21.973.192.16.864.032.1.192a11.155,11.155,0,0,0-3.71,1.855c-11.322,9.6-16.536,25.811-21.333,41.067-6.717,22.9-10.907,47.4-14.425,71.964-13.657,99.6-15.928,200.571-28.082,301-3.326,25.875-7,51.238-14.3,76.7-6.429,20.47-16.568,48.967-42.986,50.471a49.085,49.085,0,0,1-31.824-10.683c-22.964-19.126-30.161-49.191-36.494-76.314-12.762-62.848-13.433-126.049-21.333-189.057-2.431-17.751-4.83-35.438-10.843-51.782-2.335-5.661-4.446-10.363-7.772-12.474l-.224-.032a4.032,4.032,0,0,1-.512.032,5.086,5.086,0,0,0-1.855,1.151,22.771,22.771,0,0,0-3.742,4.158c-12.25,19.094-17.527,42.858-23.06,65.119-5.6,24.02-10.139,48.616-14.393,73.307-12.122,72.955-23.764,152.148-41.675,224.111-6.972,25.715-14.009,50.726-28.786,73.979-7.228,11.194-19.606,23.252-34.383,24.5-18.2,1.215-36.526-7.836-47.944-21.621-42.091-52.741-21.269-168.811-14.968-232.4,1.151-11.738,3.07-23.252,2.271-34.894-2.015-38.477-13.945-89.331-54.469-102.189-24.084-6.429-45.833,8.764-55.236,32.112-6.621,15.736-8,34.99-5.053,54.437a45.872,45.872,0,0,1-38.509,52.262C22.229,740.684-5.341,711.674.928,681.29H.9Z" fill="#00e"/>
    </g>
    <g id="Group_5" data-name="Group 5" transform="matrix(0.695, -0.719, 0.719, 0.695, 1613.841, 1467.44)">
      <path id="Path_6" data-name="Path 6" d="M1244.349,93.2S1038.847-60.629,957.3,16.937s-221.388-69.5-302.955,8.09,58.3,224.63-23.244,302.2-221.412-69.476-302.958,8.09,58.3,224.631-23.221,302.175S125.859,549.284-79.891,599.1-409.916,716.686-416.9,883.73,20.3,1322.5,20.3,1322.5" transform="translate(0 0)" fill="none" stroke="#00e" stroke-linecap="round" stroke-linejoin="round" stroke-width="3"/>
      <path id="Path_7" data-name="Path 7" d="M1209.513,123.281S1046.349-52.742,964.806,24.824s-221.388-69.5-302.955,8.09,58.3,224.63-23.244,302.2-221.412-69.477-302.959,8.09,58.3,224.63-23.22,302.174S94.66,625.557-19.283,626.878-402.039,698.083-395.7,856.3s430.548,430,430.548,430" transform="translate(17.966 18.887)" fill="none" stroke="#00e" stroke-linecap="round" stroke-linejoin="round" stroke-width="3"/>
      <path id="Path_8" data-name="Path 8" d="M1153.658,144.918s-99.8-189.773-181.347-112.207-221.392-69.5-302.959,8.09,58.3,224.63-23.244,302.2-221.412-69.477-302.959,8.09,58.3,224.63-23.22,302.174S2.913,638.366-88.56,654.3s-290.205,52.627-274.981,194.751S77.893,1229.825,77.893,1229.825" transform="translate(35.932 37.775)" fill="none" stroke="#00e" stroke-linecap="round" stroke-linejoin="round" stroke-width="3"/>
      <path id="Path_9" data-name="Path 9" d="M1129.88,160.069l-46.009-11.69S1061.335-36.968,979.789,40.6,758.377-28.878,676.83,48.688,735.156,273.3,653.61,350.864s-221.412-69.478-302.959,8.09,58.3,224.627-23.22,302.174S-52.127,671.162-93.5,673.484s-272.822,34.67-244.318,168.389,476.33,362.2,476.33,362.2" transform="translate(53.898 56.684)" fill="none" stroke="#00e" stroke-linecap="round" stroke-linejoin="round" stroke-width="3"/>
      <path id="Path_10" data-name="Path 10" d="M1056.9,200s-17.223-218.665-92.644-142.95-198.374-78.039-279.92-.473,58.326,224.609-23.22,302.173-221.412-69.475-302.955,8.09,58.3,224.63-23.224,302.175-406.2,28.526-470.1,28.673-230.6,46.236-184.229,131.29,419.922,314.584,419.922,314.584" transform="translate(71.864 75.571)" fill="none" stroke="#00e" stroke-linecap="round" stroke-linejoin="round" stroke-width="3"/>
    </g>
    <g id="Group_20" data-name="Group 20" transform="translate(0 912.596)">
      <path id="Path_88" data-name="Path 88" d="M14.046,164.346c103.8-6.348,189.8,72.635,186.988,162.906-2.759,86.681-86.652,159.31-186.265,153.553" transform="translate(-13.762 -39.053)" fill="none" stroke="#00e" stroke-linecap="round" stroke-linejoin="round" stroke-width="1.1"/>
      <path id="Path_89" data-name="Path 89" d="M14.062,170.991c91.785-5.628,167.887,64.244,165.364,144.059-2.4,76.663-76.628,140.893-164.725,135.8" transform="translate(-13.736 -27.431)" fill="none" stroke="#00e" stroke-linecap="round" stroke-linejoin="round" stroke-width="1.1"/>
      <path id="Path_90" data-name="Path 90" d="M14.079,178.412c78.448-4.776,143.454,54.853,141.282,123.076C153.308,367,89.886,421.883,14.625,417.52" transform="translate(-13.706 -14.444)" fill="none" stroke="#00e" stroke-linecap="round" stroke-linejoin="round" stroke-width="1.1"/>
      <path id="Path_91" data-name="Path 91" d="M14.094,185.057c66.433-4.059,121.539,46.46,119.721,104.29-1.761,55.5-55.513,101.981-119.258,98.284" transform="translate(-13.68 -2.821)" fill="none" stroke="#00e" stroke-linecap="round" stroke-linejoin="round" stroke-width="1.1"/>
      <path id="Path_92" data-name="Path 92" d="M14.106,190.192c57.185-3.533,104.6,40.01,103.014,89.715C115.593,327.656,69.376,367.7,14.5,364.484" transform="translate(-13.659 6.154)" fill="none" stroke="#00e" stroke-linecap="round" stroke-linejoin="round" stroke-width="1.1"/>
      <path id="Path_93" data-name="Path 93" d="M14.115,194.338c49.7-3.073,90.871,34.752,89.523,77.967-1.289,41.514-41.478,76.25-89.176,73.522" transform="translate(-13.642 13.408)" fill="none" stroke="#00e" stroke-linecap="round" stroke-linejoin="round" stroke-width="1.1"/>
      <path id="Path_94" data-name="Path 94" d="M14.128,199.856c39.759-2.421,72.734,27.8,71.618,62.387-1.057,33.2-33.207,61.051-71.341,58.805" transform="translate(-13.621 23.069)" fill="none" stroke="#00e" stroke-linecap="round" stroke-linejoin="round" stroke-width="1.1"/>
      <path id="Path_95" data-name="Path 95" d="M14.138,204.35c31.643-1.964,57.873,22.166,56.992,49.694-.82,26.457-26.44,48.563-56.771,46.8" transform="translate(-13.603 30.924)" fill="none" stroke="#00e" stroke-linecap="round" stroke-linejoin="round" stroke-width="1.1"/>
      <path id="Path_96" data-name="Path 96" d="M14.149,208.977c23.34-1.44,42.633,16.281,41.987,36.562-.585,19.466-19.486,35.76-41.825,34.489" transform="translate(-13.584 39.02)" fill="none" stroke="#00e" stroke-linecap="round" stroke-linejoin="round" stroke-width="1.1"/>
      <path id="Path_97" data-name="Path 97" d="M14.158,212.962c16.1-.98,29.472,11.272,29,25.255-.41,13.482-13.471,24.724-28.888,23.814" transform="translate(-13.568 45.995)" fill="none" stroke="#00e" stroke-linecap="round" stroke-linejoin="round" stroke-width="1.1"/>
      <path id="Path_98" data-name="Path 98" d="M14.168,217.224c8.43-.523,15.428,5.885,15.194,13.194-.236,7.055-7.017,12.929-15.135,12.444" transform="translate(-13.551 53.449)" fill="none" stroke="#00e" stroke-linecap="round" stroke-linejoin="round" stroke-width="1.1"/>
      <path id="Path_99" data-name="Path 99" d="M14.027,156.03c118.837-7.265,217.259,83.09,214.034,186.463-3.108,99.215-99.246,182.393-213.207,175.725" transform="translate(-13.795 -53.601)" fill="none" stroke="#00e" stroke-linecap="round" stroke-linejoin="round" stroke-width="1.1"/>
      <path id="Path_100" data-name="Path 100" d="M14.011,148.9c131.67-8.049,240.812,92.109,237.172,206.632C247.722,465.525,141.223,557.669,14.928,550.272" transform="translate(-13.824 -66.066)" fill="none" stroke="#00e" stroke-linecap="round" stroke-linejoin="round" stroke-width="1.1"/>
      <path id="Path_101" data-name="Path 101" d="M13.991,140.043c147.649-9.095,270.031,103.252,265.983,231.7C276.1,495.083,156.668,598.408,15.019,590.165" transform="translate(-13.859 -81.581)" fill="none" stroke="#00e" stroke-linecap="round" stroke-linejoin="round" stroke-width="1.1"/>
      <path id="Path_102" data-name="Path 102" d="M13.957,125.238c174.323-10.664,318.834,121.975,314.022,273.6C323.4,544.483,182.431,666.439,15.171,656.679" transform="translate(-13.918 -107.468)" fill="none" stroke="#00e" stroke-linecap="round" stroke-linejoin="round" stroke-width="1.1"/>
      <path id="Path_103" data-name="Path 103" d="M13.974,132.779C174.708,122.9,307.933,245.236,303.535,385.02,299.312,519.261,169.327,631.8,15.094,622.773" transform="translate(-13.888 -94.284)" fill="none" stroke="#00e" stroke-linecap="round" stroke-linejoin="round" stroke-width="1.1"/>
      <path id="Path_104" data-name="Path 104" d="M13.943,119C199.463,107.684,353.308,248.807,348.2,410.2,343.334,565.164,193.255,695.076,15.235,684.65" transform="translate(-13.943 -118.367)" fill="none" stroke="#00e" stroke-linecap="round" stroke-linejoin="round" stroke-width="1.1"/>
    </g>
  </g>
</svg>
