<svg xmlns="http://www.w3.org/2000/svg" xmlns:xlink="http://www.w3.org/1999/xlink" width="2525" height="5092" viewBox="0 0 2525 5092">
  <defs>
    <clipPath id="clip-Web_1920_7">
      <rect width="2525" height="5092"/>
    </clipPath>
  </defs>
  <g id="Web_1920_7" data-name="Web 1920 – 7" clip-path="url(#clip-Web_1920_7)">
    <rect width="2525" height="5092" fill="#e5e1db"/>
    <g id="Group_18" data-name="Group 18" transform="translate(2419.872 2127.928) rotate(98)">
      <g id="Group_16" data-name="Group 16" transform="matrix(0.978, -0.208, 0.208, 0.978, -248.734, 1348.059)">
        <g id="Group_13" data-name="Group 13" transform="translate(1623.877 0)">
          <g id="Group_21" data-name="Group 21">
            <path id="Path_83" data-name="Path 83" d="M0,634.346c80.336-76.417,218.126,68.443,298.439-7.95S240.982,405.12,321.314,328.707s218.126,68.443,298.462-7.97-57.457-221.276,22.9-297.709S860.8,91.471,941.134,15.058" transform="translate(0)" fill="rgba(0,0,0,0)" stroke="#00e" stroke-linecap="round" stroke-linejoin="round" stroke-width="3"/>
            <path id="Path_130" data-name="Path 130" d="M0,634.346c80.336-76.417,218.126,68.443,298.439-7.95S240.982,405.12,321.314,328.707s218.126,68.443,298.462-7.97-57.457-221.276,22.9-297.709S860.8,91.471,941.134,15.058" transform="translate(937.984 -616.539)" fill="rgba(0,0,0,0)" stroke="#00e" stroke-linecap="round" stroke-linejoin="round" stroke-width="3"/>
            <path id="Path_84" data-name="Path 84" d="M0,634.344c80.336-76.413,218.126,68.447,298.439-7.946s-57.457-221.276,22.876-297.69,218.129,68.443,298.462-7.97-57.457-221.276,22.9-297.713S860.8,91.472,941.134,15.056" transform="translate(25.09 26.376)" fill="rgba(0,0,0,0)" stroke="#00e" stroke-linecap="round" stroke-linejoin="round" stroke-width="3"/>
            <path id="Path_131" data-name="Path 131" d="M0,634.344c80.336-76.413,218.126,68.447,298.439-7.946s-57.457-221.276,22.876-297.69,218.129,68.443,298.462-7.97-57.457-221.276,22.9-297.713S860.8,91.472,941.134,15.056" transform="translate(963.074 -590.162)" fill="rgba(0,0,0,0)" stroke="#00e" stroke-linecap="round" stroke-linejoin="round" stroke-width="3"/>
            <path id="Path_85" data-name="Path 85" d="M0,634.345c80.336-76.413,218.129,68.447,298.439-7.946s-57.457-221.276,22.876-297.69,218.129,68.443,298.462-7.97-57.457-221.276,22.9-297.713S860.8,91.474,941.137,15.057" transform="translate(50.18 52.752)" fill="rgba(0,0,0,0)" stroke="#00e" stroke-linecap="round" stroke-linejoin="round" stroke-width="3"/>
            <path id="Path_132" data-name="Path 132" d="M0,634.345c80.336-76.413,218.129,68.447,298.439-7.946s-57.457-221.276,22.876-297.69,218.129,68.443,298.462-7.97-57.457-221.276,22.9-297.713S860.8,91.474,941.137,15.057" transform="translate(988.163 -563.787)" fill="rgba(0,0,0,0)" stroke="#00e" stroke-linecap="round" stroke-linejoin="round" stroke-width="3"/>
            <path id="Path_86" data-name="Path 86" d="M0,634.314c80.336-76.413,218.129,68.447,298.439-7.946s-57.457-221.276,22.876-297.689,218.129,68.443,298.462-7.97S562.319,99.432,642.652,23.019s218.126,68.443,298.462-7.973" transform="translate(75.269 79.16)" fill="rgba(0,0,0,0)" stroke="#00e" stroke-linecap="round" stroke-linejoin="round" stroke-width="3"/>
            <path id="Path_133" data-name="Path 133" d="M0,634.314c80.336-76.413,218.129,68.447,298.439-7.946s-57.457-221.276,22.876-297.689,218.129,68.443,298.462-7.97S562.319,99.432,642.652,23.019s218.126,68.443,298.462-7.973" transform="translate(1013.253 -537.378)" fill="rgba(0,0,0,0)" stroke="#00e" stroke-linecap="round" stroke-linejoin="round" stroke-width="3"/>
            <path id="Path_87" data-name="Path 87" d="M0,634.316c80.333-76.413,218.126,68.447,298.435-7.95s-57.457-221.273,22.879-297.689,218.126,68.447,298.459-7.97S562.316,99.434,642.649,23.017s218.129,68.447,298.462-7.97" transform="translate(100.362 105.536)" fill="rgba(0,0,0,0)" stroke="#00e" stroke-linecap="round" stroke-linejoin="round" stroke-width="3"/>
            <path id="Path_134" data-name="Path 134" d="M0,634.316c80.333-76.413,218.126,68.447,298.435-7.95s-57.457-221.273,22.879-297.689,218.126,68.447,298.459-7.97S562.316,99.434,642.649,23.017s218.129,68.447,298.462-7.97" transform="translate(1038.346 -511.002)" fill="rgba(0,0,0,0)" stroke="#00e" stroke-linecap="round" stroke-linejoin="round" stroke-width="3"/>
          </g>
        </g>
        <g id="Group_15" data-name="Group 15" transform="translate(0 612.17)">
          <path id="Path_83-2" data-name="Path 83" d="M1632.1,15.058c-80.333,76.413-218.1-68.468-298.458,7.97s57.433,221.293-22.9,297.709-218.126-68.447-298.462,7.97S1069.717,550,989.4,626.4s-269.187-73.506-298.439,7.95-64.38,80.9-75.9,79.251S507.978,565.629,471.642,566.861,359.654,554.91,334.215,621.254s75.6,179.877,34.251,173.537-83.122-66.5-147.031-49.555S105.606,800.368,0,909.23" transform="translate(0 0)" fill="rgba(0,0,0,0)" stroke="#00e" stroke-linecap="round" stroke-linejoin="round" stroke-width="3"/>
          <path id="Path_84-2" data-name="Path 84" d="M1638.307,15.056c-80.333,76.416-218.1-68.463-298.459,7.97s57.434,221.3-22.9,297.713-218.126-68.447-298.462,7.97S1075.924,550,995.611,626.4c-77.02,73.261-206.9-56.96-288.384-.291a85.537,85.537,0,0,0-10.054,8.237c-80.336,76.413-70.653,66.938-88.664,70.6S473.2,584.171,441.774,573.613s-82.072-.046-98.507,57.671,66.2,145.41,59.35,176.027-156.286-67.89-227.055-54.546S20.526,1008.742,0,972.983" transform="translate(18.883 26.376)" fill="rgba(0,0,0,0)" stroke="#00e" stroke-linecap="round" stroke-linejoin="round" stroke-width="3"/>
          <path id="Path_85-2" data-name="Path 85" d="M1646.158,15.057c-80.336,76.416-218.106-68.467-298.462,7.97s57.434,221.3-22.9,297.713-218.126-68.447-298.462,7.97,57.437,221.3-22.876,297.69-242.259-60.565-324,17.628-88.344,58.334-102.818,54.3S464.305,604.3,436.563,583.009s-95.868-19.528-59.252,101.968,80.944,125.576,60.632,157.585S269.064,716.406,164.931,764,27.4,1083.748,0,1007.86" transform="translate(36.124 52.752)" fill="rgba(0,0,0,0)" stroke="#00e" stroke-linecap="round" stroke-linejoin="round" stroke-width="3"/>
          <path id="Path_86-2" data-name="Path 86" d="M1686.186,15.046C1605.85,91.463,1468.06-53.4,1387.724,23.019s57.46,221.273-22.876,297.689-218.126-68.447-298.462,7.97,57.437,221.293-22.876,297.689-173.281-26.53-276.357-6.534-74.764,77.917-121.909,98.816S421.731,531.322,418.274,613.028s114.784,213.493,65.291,238.845-240.883-113.49-295.835-55.127S128.142,1080.95,0,1058.982" transform="translate(21.163 79.161)" fill="rgba(0,0,0,0)" stroke="#00e" stroke-linecap="round" stroke-linejoin="round" stroke-width="3"/>
          <path id="Path_87-2" data-name="Path 87" d="M1556.7,15.048c-80.333,76.416-218.126-68.443-298.462,7.97s57.46,221.276-22.876,297.689-218.126-68.443-298.459,7.97,57.433,221.3-22.879,297.689-302.729-76.39-338.777,59.02-353-142.251-230.172,46.091,15.237,208.847-107.8,115.07-172.01-46.7-192.352,6.518S84.723,1028.1,0,1064.41" transform="translate(175.741 105.536)" fill="rgba(0,0,0,0)" stroke="#00e" stroke-linecap="round" stroke-linejoin="round" stroke-width="3"/>
        </g>
      </g>
    </g>
    <g id="Group_5" data-name="Group 5" transform="matrix(0.695, -0.719, 0.719, 0.695, 1613.841, 1467.44)">
      <path id="Path_6" data-name="Path 6" d="M1244.349,93.2S1038.847-60.629,957.3,16.937s-221.388-69.5-302.955,8.09,58.3,224.63-23.244,302.2-221.412-69.476-302.958,8.09,58.3,224.631-23.221,302.175S125.859,549.284-79.891,599.1-409.916,716.686-416.9,883.73,20.3,1322.5,20.3,1322.5" transform="translate(0 0)" fill="none" stroke="#00e" stroke-linecap="round" stroke-linejoin="round" stroke-width="3"/>
      <path id="Path_7" data-name="Path 7" d="M1209.513,123.281S1046.349-52.742,964.806,24.824s-221.388-69.5-302.955,8.09,58.3,224.63-23.244,302.2-221.412-69.477-302.959,8.09,58.3,224.63-23.22,302.174S94.66,625.557-19.283,626.878-402.039,698.083-395.7,856.3s430.548,430,430.548,430" transform="translate(17.966 18.887)" fill="none" stroke="#00e" stroke-linecap="round" stroke-linejoin="round" stroke-width="3"/>
      <path id="Path_8" data-name="Path 8" d="M1153.658,144.918s-99.8-189.773-181.347-112.207-221.392-69.5-302.959,8.09,58.3,224.63-23.244,302.2-221.412-69.477-302.959,8.09,58.3,224.63-23.22,302.174S2.913,638.366-88.56,654.3s-290.205,52.627-274.981,194.751S77.893,1229.825,77.893,1229.825" transform="translate(35.932 37.775)" fill="none" stroke="#00e" stroke-linecap="round" stroke-linejoin="round" stroke-width="3"/>
      <path id="Path_9" data-name="Path 9" d="M1129.88,160.069l-46.009-11.69S1061.335-36.968,979.789,40.6,758.377-28.878,676.83,48.688,735.156,273.3,653.61,350.864s-221.412-69.478-302.959,8.09,58.3,224.627-23.22,302.174S-52.127,671.162-93.5,673.484s-272.822,34.67-244.318,168.389,476.33,362.2,476.33,362.2" transform="translate(53.898 56.684)" fill="none" stroke="#00e" stroke-linecap="round" stroke-linejoin="round" stroke-width="3"/>
      <path id="Path_10" data-name="Path 10" d="M1056.9,200s-17.223-218.665-92.644-142.95-198.374-78.039-279.92-.473,58.326,224.609-23.22,302.173-221.412-69.475-302.955,8.09,58.3,224.63-23.224,302.175-406.2,28.526-470.1,28.673-230.6,46.236-184.229,131.29,419.922,314.584,419.922,314.584" transform="translate(71.864 75.571)" fill="none" stroke="#00e" stroke-linecap="round" stroke-linejoin="round" stroke-width="3"/>
    </g>
    <g id="Group_20" data-name="Group 20" transform="translate(0 912.596)">
      <path id="Path_88" data-name="Path 88" d="M14.046,164.44c130.906-8.006,239.365,91.6,235.817,205.445C246.384,479.2,140.583,570.8,14.958,563.536" transform="translate(-13.688 -6.428)" fill="none" stroke="#00e" stroke-linecap="round" stroke-linejoin="round" stroke-width="1.1"/>
      <path id="Path_89" data-name="Path 89" d="M14.062,171.074c115.753-7.1,211.728,81.02,208.546,181.677-3.032,96.682-96.637,177.685-207.74,171.264" transform="translate(-13.65 9.974)" fill="none" stroke="#00e" stroke-linecap="round" stroke-linejoin="round" stroke-width="1.1"/>
      <path id="Path_90" data-name="Path 90" d="M14.079,178.482c98.934-6.023,180.914,69.177,178.174,155.215-2.588,82.619-82.572,151.834-177.485,146.332" transform="translate(-13.609 28.303)" fill="none" stroke="#00e" stroke-linecap="round" stroke-linejoin="round" stroke-width="1.1"/>
      <path id="Path_91" data-name="Path 91" d="M14.094,185.117C97.874,180,167.37,243.709,165.077,316.64c-2.22,69.989-70.009,128.611-150.4,123.949" transform="translate(-13.571 44.707)" fill="none" stroke="#00e" stroke-linecap="round" stroke-linejoin="round" stroke-width="1.1"/>
      <path id="Path_92" data-name="Path 92" d="M14.106,190.244C86.223,185.789,146.019,240.7,144.02,303.387,142.094,363.6,83.809,414.1,14.608,410.05" transform="translate(-13.543 57.373)" fill="none" stroke="#00e" stroke-linecap="round" stroke-linejoin="round" stroke-width="1.1"/>
      <path id="Path_93" data-name="Path 93" d="M14.115,194.384c62.677-3.875,114.6,43.827,112.9,98.326-1.626,52.354-52.309,96.161-112.463,92.721" transform="translate(-13.519 67.611)" fill="none" stroke="#00e" stroke-linecap="round" stroke-linejoin="round" stroke-width="1.1"/>
      <path id="Path_94" data-name="Path 94" d="M14.128,199.892c50.141-3.053,91.728,35.062,90.32,78.678-1.333,41.865-41.879,76.993-89.971,74.161" transform="translate(-13.488 81.247)" fill="none" stroke="#00e" stroke-linecap="round" stroke-linejoin="round" stroke-width="1.1"/>
      <path id="Path_95" data-name="Path 95" d="M14.138,204.379c39.907-2.476,72.985,27.954,71.874,62.67-1.035,33.366-33.345,61.244-71.6,59.027" transform="translate(-13.463 92.332)" fill="none" stroke="#00e" stroke-linecap="round" stroke-linejoin="round" stroke-width="1.1"/>
      <path id="Path_96" data-name="Path 96" d="M14.149,209c29.434-1.817,53.766,20.532,52.951,46.11-.737,24.549-24.574,45.1-52.747,43.5" transform="translate(-13.437 103.759)" fill="none" stroke="#00e" stroke-linecap="round" stroke-linejoin="round" stroke-width="1.1"/>
      <path id="Path_97" data-name="Path 97" d="M14.158,212.976c20.31-1.236,37.167,14.215,36.573,31.85-.517,17-16.989,31.18-36.432,30.033" transform="translate(-13.414 113.602)" fill="none" stroke="#00e" stroke-linecap="round" stroke-linejoin="round" stroke-width="1.1"/>
      <path id="Path_98" data-name="Path 98" d="M14.168,217.232c10.631-.66,19.457,7.422,19.161,16.64-.3,8.9-8.85,16.3-19.087,15.694" transform="translate(-13.39 124.122)" fill="none" stroke="#00e" stroke-linecap="round" stroke-linejoin="round" stroke-width="1.1"/>
      <path id="Path_99" data-name="Path 99" d="M14.027,156.137C163.9,146.975,288.019,260.925,283.953,391.291,280.033,516.414,158.79,621.313,15.071,612.9" transform="translate(-13.735 -26.96)" fill="none" stroke="#00e" stroke-linecap="round" stroke-linejoin="round" stroke-width="1.1"/>
      <path id="Path_100" data-name="Path 100" d="M14.011,149.023c166.053-10.15,303.7,116.161,299.105,260.59C308.751,548.323,174.441,664.529,15.168,655.2" transform="translate(-13.775 -44.553)" fill="none" stroke="#00e" stroke-linecap="round" stroke-linejoin="round" stroke-width="1.1"/>
      <path id="Path_101" data-name="Path 101" d="M13.991,140.178c186.2-11.47,340.544,130.214,335.439,292.2-4.884,155.55-155.5,285.857-334.142,275.462" transform="translate(-13.825 -66.45)" fill="none" stroke="#00e" stroke-linecap="round" stroke-linejoin="round" stroke-width="1.1"/>
      <path id="Path_102" data-name="Path 102" d="M13.957,125.4C233.8,111.947,416.048,279.222,409.98,470.445,404.209,654.118,226.424,807.921,15.488,795.612" transform="translate(-13.908 -102.985)" fill="none" stroke="#00e" stroke-linecap="round" stroke-linejoin="round" stroke-width="1.1"/>
      <path id="Path_103" data-name="Path 103" d="M13.974,132.926C216.681,120.465,384.7,274.747,379.149,451.033c-5.326,169.3-169.254,311.228-363.763,299.838" transform="translate(-13.866 -84.378)" fill="none" stroke="#00e" stroke-linecap="round" stroke-linejoin="round" stroke-width="1.1"/>
      <path id="Path_104" data-name="Path 104" d="M13.943,119.171c233.966-14.277,427.984,163.7,421.543,367.233-6.137,195.433-195.407,359.268-419.914,346.12" transform="translate(-13.943 -118.367)" fill="none" stroke="#00e" stroke-linecap="round" stroke-linejoin="round" stroke-width="1.1"/>
    </g>
    <path id="Path_137" data-name="Path 137" d="M225.919,104H961.8a44.123,44.123,0,0,1,44.125,44.125h0a42.734,42.734,0,0,1-42.741,42.728H396.454a42.88,42.88,0,0,0-42.883,42.883h0a44,44,0,0,0,43.983,43.983H962.7a43.228,43.228,0,0,1,43.233,43.233h0a43.626,43.626,0,0,1-43.621,43.621H327.726c-23.828,0-46.155,19.314-46.155,43.155h0c0,24.139,21.572,43.7,45.711,43.7H962.425a43.51,43.51,0,0,1,43.5,43.5h0a43.355,43.355,0,0,1-43.362,43.349H457.662c-23.8,0-41.09,19.288-41.09,43.09h1c0,24.178,15.611,43.776,39.789,43.776h505.5a43.057,43.057,0,0,1,43.064,43.065h0A43.8,43.8,0,0,1,962.127,712H353.571" transform="translate(1796.72 3192.494)" fill="none" stroke="#00e" stroke-linecap="round" stroke-miterlimit="10" stroke-width="6"/>
  </g>
</svg>
